<svg width="20" height="20" viewBox="0 0 20 20" xmlns="http://www.w3.org/2000/svg"><path d="M3.905 12.69A6.164 6.164 0 012.08 8.293c0-1.663.648-3.223 1.826-4.397a6.195 6.195 0 014.41-1.823c1.665 0 3.23.647 4.408 1.824a6.157 6.157 0 011.827 4.396 6.164 6.164 0 01-1.827 4.398 6.202 6.202 0 01-4.409 1.822 6.199 6.199 0 01-4.409-1.823m15.791 5.542l-4.84-4.828a8.213 8.213 0 001.773-5.11 8.229 8.229 0 00-2.436-5.865A8.273 8.273 0 008.314 0c-2.22 0-4.31.864-5.878 2.429A8.229 8.229 0 000 8.293c0 2.215.865 4.298 2.436 5.863a8.261 8.261 0 005.878 2.43 8.261 8.261 0 005.064-1.725l4.85 4.837c.405.403 1.06.403 1.465 0l.003-.005a1.03 1.03 0 000-1.46" fill="#FFF" fill-rule="evenodd"/></svg>