<svg xmlns="http://www.w3.org/2000/svg" viewBox="0 0 127.82 31.68"><defs><style>.cls-1{fill:#000}</style></defs><g id="Layer_2" data-name="Layer 2"><g id="Layer_2-2" data-name="Layer 2"><path class="cls-1" d="M104.53.07a1.45 1.45 0 00-1.82.92l-8.27 25.44c-.74-2.15-1.7-5-2.69-7.92-1.92-5.7-3.92-11.6-4.9-14.27a2.06 2.06 0 00-1.95-1.36 2.05 2.05 0 00-2 1.36l-7.56 22.15L67.08 1a1.44 1.44 0 00-2.74.9l9.3 28.59a1.76 1.76 0 003.32.05l7.95-23.16c1.09 3.09 2.68 7.8 4.09 12.05 1.63 4.81 3.16 9.36 3.81 11.1a1.77 1.77 0 001.65 1.15 1.75 1.75 0 001.64-1.21l9.3-28.58a1.45 1.45 0 00-.87-1.82zM12.64 0A12.65 12.65 0 000 12.64v17.6a1.44 1.44 0 102.88 0v-17.6a9.76 9.76 0 1119.52 0v17.6a1.44 1.44 0 002.88 0v-17.6A12.65 12.65 0 0012.64 0zM46.45 0a15.84 15.84 0 00-15.83 16.6 15.91 15.91 0 0015.21 15.07h.6a15.87 15.87 0 0012.73-6.41 1.44 1.44 0 10-2.31-1.72 12.94 12.94 0 112.48-9.15H46.41a1.44 1.44 0 100 2.88h13.77a2.1 2.1 0 001.51-.65 2.05 2.05 0 00.58-1.54A15.82 15.82 0 0046.45 0zM118.64 13.48l-.88-.23-.23-.07c-2.7-.81-5.46-2-5.46-5.07a4 4 0 011.18-3.34 7.05 7.05 0 015-1.86c3.15 0 5 1.22 5.69 3.73a1.44 1.44 0 002.78-.76c-1-3.77-4-5.85-8.47-5.85a10 10 0 00-7.09 2.72 6.93 6.93 0 00-2 5.4c0 5.57 5.66 7.26 7.51 7.82l.22.06c.29.09.62.18 1 .27 3.55.91 7 2.15 7 6.45 0 3.64-2.73 6.08-6.79 6.08-3.55 0-6.14-2-6.78-5.12a1.43 1.43 0 00-1.69-1.13 1.44 1.44 0 00-1.13 1.7c.9 4.51 4.67 7.43 9.6 7.43a10.19 10.19 0 006.91-2.47 8.65 8.65 0 002.76-6.49c.05-6.93-6.38-8.57-9.13-9.27z"/></g></g></svg>