<svg xmlns="http://www.w3.org/2000/svg" viewBox="0 0 176.19 31.68"><defs><style>.cls-1{fill:#000}</style></defs><g id="Layer_2" data-name="Layer 2"><g id="Layer_2-2" data-name="Layer 2"><path class="cls-1" d="M47.29 0a1.44 1.44 0 00-1.44 1.44v17.44a9.92 9.92 0 01-19.84 0V1.44a1.44 1.44 0 10-2.88 0v17.44a12.8 12.8 0 1025.6 0V1.44A1.43 1.43 0 0047.29 0zM111.63 0a15.82 15.82 0 1015.82 15.82A15.84 15.84 0 00111.63 0zm0 28.76a12.94 12.94 0 1112.94-12.94 13 13 0 01-12.94 12.96zM61.41 0h-5.93a2.37 2.37 0 00-1.7.71 2.41 2.41 0 00-.69 1.69v27.84a1.44 1.44 0 002.88 0V2.88h5.41a6.72 6.72 0 010 13.44h-2a1.44 1.44 0 000 2.88h2a9.6 9.6 0 000-19.2zM83.19 0h-5.93a2.39 2.39 0 00-2.39 2.4v27.84a1.44 1.44 0 002.88 0V2.88h5.41a6.72 6.72 0 010 13.44h-2a1.44 1.44 0 100 2.88h2a9.6 9.6 0 000-19.2zM141.08 19.07A9.6 9.6 0 00139.64 0h-5.95a2.36 2.36 0 00-1.7.72 2.43 2.43 0 00-.67 1.68v27.84a1.44 1.44 0 102.88 0V2.88h5.33a6.72 6.72 0 010 13.44H136.73l-.06.05-.06.05-.05.06-.06.07V17a.19.19 0 000 .07.13.13 0 000 .06.22.22 0 000 .08.13.13 0 000 .06v.23a.15.15 0 010 .07V18.27l.05.05a.12.12 0 000 .05l.05.06a79.67 79.67 0 0110.9 12.64 1.42 1.42 0 001.18.61 1.47 1.47 0 00.82-.26 1.44 1.44 0 00.35-2 87.67 87.67 0 00-8.77-10.35zM10.12 13.48l-.88-.23-.24-.07c-2.7-.81-5.46-2-5.46-5.07a4 4 0 011.19-3.37 7.05 7.05 0 015-1.86c3.15 0 5 1.22 5.69 3.73a1.44 1.44 0 002.78-.76C17.2 2.08 14.2 0 9.76 0a10 10 0 00-7.09 2.72 6.93 6.93 0 00-2 5.4c0 5.57 5.66 7.26 7.51 7.82l.22.06c.29.09.62.18 1 .27 3.55.91 7 2.15 7 6.45 0 3.64-2.73 6.08-6.79 6.08-3.55 0-6.14-2-6.78-5.12a1.44 1.44 0 10-2.83.57c.9 4.51 4.67 7.43 9.6 7.43a10.19 10.19 0 006.91-2.47 8.65 8.65 0 002.76-6.49c.03-6.9-6.4-8.54-9.15-9.24zM174.75 4.8h-13.12V1.44a1.44 1.44 0 10-2.88 0V4.8H154a1.44 1.44 0 100 2.88h4.8v5.25l.1 3.09a17.13 17.13 0 00.82 4.86 17.3 17.3 0 009.78 10.69 1.55 1.55 0 00.56.11 1.44 1.44 0 00.57-2.77 14.44 14.44 0 01-8.9-12.91l-.1-3.09V7.68h13.12a1.44 1.44 0 000-2.88z"/></g></g></svg>