<svg xmlns="http://www.w3.org/2000/svg" viewBox="0 0 136.39 31.68"><defs><style>.cls-1{fill:#000}</style></defs><g id="Layer_2" data-name="Layer 2"><g id="Layer_2-2" data-name="Layer 2"><path class="cls-1" d="M61.51 0a15.82 15.82 0 1015.83 15.84A15.83 15.83 0 0061.51 0zm0 28.76a12.94 12.94 0 1112.95-12.92 12.95 12.95 0 01-12.95 12.94zM120.56 0a15.84 15.84 0 00-15.82 16.6A15.91 15.91 0 00120 31.67h.59a15.85 15.85 0 0012.73-6.41 1.44 1.44 0 10-2.32-1.71 13 13 0 01-23.35-7.08 13 13 0 0125.83-2.07h-12.96a1.44 1.44 0 100 2.88h13.77a2.14 2.14 0 001.52-.65 2.08 2.08 0 00.57-1.54A15.81 15.81 0 00120.56 0zM91.89 19.07A9.6 9.6 0 0090.45 0h-6a2.36 2.36 0 00-1.7.72 2.43 2.43 0 00-.67 1.68v27.84a1.44 1.44 0 002.88 0V2.88h5.33a6.72 6.72 0 010 13.44H87.64l-.06.05h-.06v.05l-.05.06-.06.07v.25a.19.19 0 000 .07V17a.19.19 0 000 .07.13.13 0 000 .06v.71a.14.14 0 000 .06v.47l.06.06a79.67 79.67 0 0110.84 12.64 1.42 1.42 0 001.17.61 1.48 1.48 0 00.83-.26 1.44 1.44 0 00.35-2 87.67 87.67 0 00-8.77-10.35zM10.12 13.48l-.88-.23-.24-.07c-2.7-.81-5.46-2-5.46-5.07a4 4 0 011.19-3.37 7.05 7.05 0 015-1.86c3.15 0 5 1.22 5.69 3.73a1.44 1.44 0 002.78-.76C17.2 2.08 14.2 0 9.76 0a10 10 0 00-7.09 2.72 6.93 6.93 0 00-2 5.4c0 5.57 5.66 7.26 7.51 7.82l.22.06c.29.09.62.18 1 .27 3.55.91 7 2.15 7 6.45 0 3.64-2.73 6.08-6.79 6.08-3.55 0-6.14-2-6.78-5.12a1.44 1.44 0 10-2.83.57c.9 4.51 4.67 7.43 9.6 7.43a10.19 10.19 0 006.91-2.47 8.65 8.65 0 002.76-6.49c.03-6.9-6.4-8.54-9.15-9.24zM43.9 4.8H30.78V1.44a1.44 1.44 0 00-2.88 0V4.8h-4.8a1.44 1.44 0 000 2.88h4.8v5.25L28 16a17.13 17.13 0 00.82 4.86 17.3 17.3 0 009.78 10.71 1.55 1.55 0 00.56.11 1.44 1.44 0 00.57-2.77A14.44 14.44 0 0130.88 16l-.1-3.09V7.68H43.9a1.44 1.44 0 100-2.88z"/></g></g></svg>