<svg xmlns="http://www.w3.org/2000/svg" viewBox="0 0 101.71 37.5"><defs><style>.cls-1{fill:#000}</style></defs><g id="Layer_2" data-name="Layer 2"><g id="Layer_2-2" data-name="Layer 2"><path class="cls-1" d="M64.08 37.5a2.06 2.06 0 110-4.11 2.06 2.06 0 110 4.11zm3.3-34.24l-1.69 25.85a1.55 1.55 0 01-3.09 0l-1.28-25.9A3 3 0 1167.38 3zM101 27.58a1.44 1.44 0 00-2 .52 12.94 12.94 0 110-13 1.44 1.44 0 002.49-1.46 15.83 15.83 0 100 15.9 1.44 1.44 0 00-.49-1.96zM15.84 5.8A15.83 15.83 0 000 22.4a15.91 15.91 0 0015.23 15.06h.59a15.85 15.85 0 0012.74-6.42 1.44 1.44 0 00-2.32-1.71A13 13 0 116.46 12.69a13 13 0 0122.27 7.51H15.81a1.44 1.44 0 000 2.88h13.76a2.12 2.12 0 001.52-.65 2.15 2.15 0 00.58-1.54A15.81 15.81 0 0015.84 5.8zM45.15 5.8h-5.93a2.4 2.4 0 00-1.7.7 2.45 2.45 0 00-.69 1.7V36a1.44 1.44 0 102.88 0V8.68h5.41a6.72 6.72 0 110 13.44h-2a1.44 1.44 0 000 2.88h2a9.6 9.6 0 000-19.19z"/></g></g></svg>